Coordinates
version=1
nRows=20
nColumns=38
inDegrees=no

Units are S.I. units (second, meters, Newtons, ...)
If the header above contains a line with 'inDegrees', this indicates whether rotational values are in degrees (yes) or radians (no).

endheader
time	pelvis_tilt	pelvis_list	pelvis_rotation	pelvis_tx	pelvis_ty	pelvis_tz	hip_flexion_r	hip_adduction_r	hip_rotation_r	knee_angle_r	ankle_angle_r	subtalar_angle_r	mtp_angle_r	hip_flexion_l	hip_adduction_l	hip_rotation_l	knee_angle_l	ankle_angle_l	subtalar_angle_l	mtp_angle_l	lumbar_extension	lumbar_bending	lumbar_rotation	arm_flex_r	arm_add_r	arm_rot_r	elbow_flex_r	pro_sup_r	wrist_flex_r	wrist_dev_r	arm_flex_l	arm_add_l	arm_rot_l	elbow_flex_l	pro_sup_l	wrist_flex_l	wrist_dev_l
15	-2.18463	1.56554	-2.46798	0.704664	-1.06511	0.933345	-0.2839	0.126192	-0.274749	0	-0.169984	0	0	0.135283	-0.0841476	0.0542858	0.498304	-0.132794	0	0	-0.203604	-0.0148545	0.100684	-0.264815	-0.619347	-0.278224	2.22009	1.5708	0	0	0.164871	-0.51367	0.244138	2.015	1.5708	0	0
15.01	2.90206	1.53231	-1.27185	0.705306	-1.06242	0.933863	-0.297379	0.133314	-0.158782	0.0313043	-0.105391	0	0	0.166726	-0.148889	-0.0984702	0.660491	-0.146229	0	0	-0.233372	-0.000633973	0.164179	-0.357827	-0.605262	-0.381374	2.25739	1.5708	0	0	0.244723	-0.49645	0.329039	1.97607	1.5708	0	0
15.02	3.05267	1.53063	-1.42239	0.705663	-1.06135	0.933345	-0.282224	0.125943	-0.144379	0.0900324	-0.0677131	0	0	0.168581	-0.140386	-0.0901949	0.669641	-0.144484	0	0	-0.235304	-0.00599556	0.167922	-0.365203	-0.604089	-0.38864	2.263	1.5708	0	0	0.25014	-0.495443	0.33271	1.97468	1.5708	0	0
15.03	3.07859	1.52728	-1.44959	0.706298	-1.06046	0.933436	-0.288878	0.125996	-0.147266	0.0870627	-0.0663347	0	0	0.169537	-0.137498	-0.0820058	0.676503	-0.143796	0	0	-0.23782	-0.00560759	0.170322	-0.364077	-0.60443	-0.388831	2.26498	1.5708	0	0	0.251409	-0.495023	0.331643	1.97271	1.5708	0	0
15.04	-2.88653	1.53402	-1.76829	0.707147	-1.06096	0.934536	-0.260748	0.108648	-0.153688	0.107613	-0.0746048	0	0	0.126255	-0.0801358	0.058172	0.547818	-0.141576	0	0	-0.232671	-0.0185678	0.168867	-0.358653	-0.598805	-0.383266	2.26205	1.5708	0	0	0.25348	-0.497188	0.330986	1.96717	1.5708	0	0
15.05	-0.445865	1.47877	2.04003	0.709892	-1.06349	0.920766	0.0258673	0.0228147	-0.0666743	0.225085	-0.127578	0	0	0.273128	-0.0388096	0.062039	0.593516	-0.121227	0	0	-0.0955923	-0.0599897	0.204218	-0.378974	-0.588484	-0.384442	2.26382	1.5708	0	0	0.246519	-0.503234	0.338227	1.9627	1.5708	0	0
15.06	-0.188102	1.50353	1.77142	0.709939	-1.06259	0.923734	0.0028351	0.0471895	0.0642535	0.405771	0.523599	0	0	0.301919	-0.0973857	-0.0337178	0.698524	-0.125624	0	0	-0.114589	-0.0261981	0.211674	-0.368108	-0.604516	-0.378776	2.25956	1.5708	0	0	0.23629	-0.490721	0.326714	1.96044	1.5708	0	0
15.07	-0.424414	1.46262	2.00655	0.710545	-1.06217	0.917865	0.0426471	-0.0106	0.0617141	0.396148	0.511529	0	0	0.320102	-0.0349732	0.0442389	0.671962	-0.110833	0	0	-0.0818696	-0.0589248	0.207477	-0.367736	-0.59736	-0.375445	2.27413	1.5708	0	0	0.230203	-0.50366	0.317428	1.9745	1.5708	0	0
15.08	-0.460593	1.47588	2.04548	0.711507	-1.0606	0.920767	0.0330849	0.0294738	-0.0307394	0.180795	-0.292356	0	0	0.292465	-0.0316879	0.0726073	0.608218	-0.129064	0	0	-0.109536	-0.0581275	0.193448	-0.364968	-0.597746	-0.371928	2.28309	1.5708	0	0	0.213977	-0.507118	0.294323	1.994	1.5708	0	0
15.09	-0.32207	1.48492	1.90026	0.710865	-1.06043	0.923416	0.0324773	0.0267202	0.0459575	0.428519	-0.00715793	0	0	0.300894	-0.0432416	0.0818946	0.647482	-0.167231	0	0	-0.123455	-0.0318494	0.170142	-0.304244	-0.617762	-0.316938	2.26972	1.5708	0	0	0.166925	-0.503488	0.242039	2.01325	1.5708	0	0
15.1	-0.439225	1.4494	2.01282	0.711922	-1.05931	0.917711	0.0517136	-0.0172633	0.0621977	0.394944	0.463181	0	0	0.341444	-0.0162488	0.0793214	0.660463	-0.157837	0	0	-0.09207	-0.0594193	0.177751	-0.31681	-0.613733	-0.323929	2.28272	1.5708	0	0	0.170135	-0.512979	0.244732	2.02034	1.5708	0	0
15.11	-0.412891	1.46153	1.9957	0.713736	-1.05874	0.92089	0.0376069	0.0290665	-0.0813335	0.225039	-0.1112	0	0	0.286703	-0.0528742	0.242533	0.43628	-0.212328	0	0	-0.10887	-0.0539411	0.158781	-0.293855	-0.605329	-0.302774	2.27346	1.5708	0	0	0.161617	-0.518569	0.229012	2.02399	1.5708	0	0
15.12	-0.447881	1.49822	2.00905	0.713566	-1.05489	0.92016	-0.00617172	0.0382148	-0.0830494	0.202281	-0.131825	0	0	0.364035	-0.123377	-0.165936	0.779944	-0.18108	0	0	-0.139242	-0.0373278	0.185534	-0.298636	-0.623232	-0.318007	2.28223	1.5708	0	0	0.169272	-0.507849	0.23375	2.02369	1.5708	0	0
15.13	-0.43616	1.54946	2.00444	0.712374	-1.05318	0.927487	-0.0862843	0.0685865	-0.0838088	0.19716	-0.121852	0	0	0.316498	-0.145683	-0.170108	0.764984	-0.189286	0	0	-0.196711	-0.00864594	0.179289	-0.285642	-0.632489	-0.315208	2.27901	1.5708	0	0	0.172229	-0.497503	0.230202	2.0173	1.5708	0	0
15.14	-0.494552	1.495	2.04841	0.714259	-1.05327	0.919923	-0.00494232	0.0313952	-0.0706387	0.203833	-0.134993	0	0	0.378579	-0.121331	-0.18336	0.778797	-0.18376	0	0	-0.140923	-0.0408878	0.195758	-0.29682	-0.623563	-0.320532	2.28494	1.5708	0	0	0.179603	-0.506156	0.238525	2.01615	1.5708	0	0
15.15	-0.417188	1.54801	1.97729	0.713388	-1.0518	0.927877	-0.122854	0.0695123	-0.104894	0.0958233	-0.178495	0	0	0.329672	-0.14624	-0.1826	0.758932	-0.192828	0	0	-0.194882	-0.0135144	0.186059	-0.284811	-0.636648	-0.314373	2.27247	1.5708	0	0	0.180939	-0.495237	0.232993	2.00882	1.5708	0	0
15.16	-0.538774	1.49603	2.08559	0.71508	-1.05187	0.92023	-0.00884473	0.0304659	-0.0672952	0.202957	-0.144199	0	0	0.387669	-0.119665	-0.197032	0.771265	-0.187196	0	0	-0.140585	-0.04409	0.190087	-0.26179	-0.630988	-0.288925	2.26695	1.5708	0	0	0.175764	-0.507732	0.225504	2.01102	1.5708	0	0
15.17	-0.561231	1.49152	2.1046	0.715365	-1.05122	0.919754	-0.0112243	0.0209963	-0.047561	0.180544	-0.150305	0	0	0.397192	-0.115157	-0.20313	0.766369	-0.188841	0	0	-0.137019	-0.0479163	0.18967	-0.24902	-0.632228	-0.278751	2.26194	1.5708	0	0	0.176735	-0.508672	0.221897	2.00814	1.5708	0	0
15.18	-0.743914	1.55185	2.29559	0.714236	-1.04952	0.928474	-0.133744	0.0664236	-0.107588	0.0910655	-0.184144	0	0	0.33948	-0.14098	-0.202284	0.743105	-0.204737	0	0	-0.201904	-0.0120452	0.170165	-0.207943	-0.64514	-0.249695	2.24613	1.5708	0	0	0.167974	-0.500062	0.202505	2.00477	1.5708	0	0
15.19	-0.890534	1.55359	2.43998	0.714366	-1.04881	0.928962	-0.137207	0.0655951	-0.106318	0.0878328	-0.192044	0	0	0.341371	-0.138751	-0.207346	0.730704	-0.209313	0	0	-0.206434	-0.0107263	0.169012	-0.191734	-0.644652	-0.239919	2.24119	1.5708	0	0	0.170399	-0.50035	0.199226	2.00005	1.5708	0	0
